# xmcd
#
# Track frame offsets:
#	150
#	15437
#	33985
#	49972
#
# Disc length: 887 seconds
#
# Revision: 2
# Processed by: cddbd v1.5.2PL0 Copyright (c) Steve Scherf et al.
# Submitted via: EasyCDDAExtractor 11.1.0.1
#
DISCID=27037504
DTITLE=Country Lise - Promotion
DYEAR=1900
DGENRE=country
TTITLE0=Tænker på dig
TTITLE1=Hjertets melodi
TTITLE2=Gi' mig et smil
TTITLE3=En rigtig countrysang
EXTD=
EXTT0=
EXTT1=
EXTT2=
EXTT3=
PLAYORDER=
